#!OML:ASF F:\VICON\USERDATA\INSTALL\rory3\rory3.ASF
:FULLY-SPECIFIED
:DEGREES
102
root 1.1760249028380945 17.898899418184943 49.36167080717052 -3.829812666347232 1.572712648969556 -3.8891194970007374
lfemur -19.22211546924548 -2.827593018472512 -18.540981998729688
ltibia 30.214706427405297
lfoot -5.743667894684078 -0.25500433460481586
ltoes -9.488292887102414
rfemur -0.4845901213685959 2.260656377612418 27.23713445949094
rtibia 37.962219533365655
rfoot -2.5559540130838547 -9.550589660793962
rtoes 6.293375141422533
lowerback -1.0 0.42179765379668976 3.5190778287716205
upperback -0.12403728915822565 1.4393207254996754 1.214161369789664
thorax -4.952606053027687 0.7424329501721707 -1.1050553531088285
lowerneck -16.050856782108916 -3.3669625479399605 -1.5819223194994803
upperneck 21.605348256794837 -4.44417241961885 0.8433813637748762
head 9.604153133398494 -2.115302913478888 -0.1072299658421736
lclavicle 3.5911312681701484e-16 -8.48648127542202e-16
lhumerus -32.95604587143964 4.736954450847072 81.34047328212475
lradius 22.75183536644945
lwrist 9.531392348496043
lhand -28.694524678717258 19.579377995791912
lfingers nan
lthumb -2.1722123059665677 49.33091789442774
rclavicle 4.68270638402873e-16 -7.816871177459221e-16
rhumerus -25.65870870133715 -16.396973977214586 -75.42605742539462
rradius 33.74917083463929
rwrist 1.2568568512142884
rhand -17.529454054869575 -1.0
rfingers nan
rthumb 8.859016362419938 -7.236403032937607
103
root 1.2140987421450393 17.91448706254409 51.107754916392814 -3.7046876349424336 2.1018208035998107 -2.352028837462323
lfemur -16.356490989417452 -3.4394411045053204 -20.538726802651166
ltibia 25.47938622129554
lfoot -5.664986622237253 -2.405178089190179
ltoes -8.19230063228768
rfemur -2.0084623283713334 1.5106199940560332 25.318477977671712
rtibia 41.23202943453351
rfoot -1.589414794707439 -10.004438833656687
rtoes 7.881210560349011
lowerback -1.0 0.25997464290917743 2.4603029219482324
upperback -0.10256566769595632 1.0752817358785538 1.0667379826600538
thorax -4.933599583651704 0.5871422527253889 -0.7968672406593597
lowerneck -16.067023980367974 -3.3748537123867752 -1.6165702441549241
upperneck 21.542163110167266 -4.465552337487985 1.0105488413696135
head 9.584989272701254 -2.116431231456823 -0.03313714801258538
lclavicle 3.5719219005860467e-16 -8.490740776558136e-16
lhumerus -33.11737541836414 5.053765552993384 81.22491004865265
lradius 23.22079724812754
lwrist 9.551319548514822
lhand -28.687611490689182 19.50807646877946
lfingers nan
lthumb -2.1810363418275798 49.25352638597631
rclavicle 4.625698482719883e-16 -7.837725988103647e-16
rhumerus -25.32379214244498 -15.545462764157351 -75.75575998157143
rradius 33.8350513829809
rwrist 1.3693479072822292
rhand -17.526665652644233 -1.0
rfingers nan
rthumb 8.845828259496788 -7.282830010622139
104
root 1.221096832123676 17.920879055417032 51.69596943325481 -3.601634530002693 2.3197127807984046 -1.191131842076095
lfemur -13.101672553723306 -3.9422470342933105 -22.17241605320159
ltibia 21.823865075858112
lfoot -5.896995357233416 -3.710087344875724
ltoes -8.385452880888804
rfemur -4.451925396059261 0.8281946850995108 23.687196210883148
rtibia 45.36613214593074
rfoot -1.628133197752109 -10.334183443068008
rtoes 8.780109012414307
lowerback -1.0 0.07488432991608718 1.5102077482960976
upperback -0.07215795554002657 0.6928416755857553 0.9429053175815503
thorax -4.9575976954043295 0.4162259640352789 -0.4280442203762108
lowerneck -16.107482522326634 -3.3755707318962984 -1.6263762129500177
upperneck 21.437251432312827 -4.474581949121138 1.1715666048549678
head 9.559001425783467 -2.111184028423117 0.03951827591201889
lclavicle 3.53305736637566e-16 -8.504206258247289e-16
lhumerus -33.186203162847065 5.292638090004388 81.0913220348175
lradius 23.68537705424964
lwrist 9.521109374292333
lhand -28.585909322334604 19.644968234532207
lfingers nan
lthumb -2.103406903287196 49.36932156810971
rclavicle 4.553980599919075e-16 -7.856922388880884e-16
rhumerus -25.13945720519625 -14.87349122796481 -76.15076739262815
rradius 33.83113804295602
rwrist 1.617976103236463
rhand -17.50334819948531 -1.0
rfingers nan
rthumb 8.848690589888733 -7.270802566068303
105
root 1.2371549514586613 17.92824526513632 52.61884912590354 -3.482800888510245 2.3728745421340856 -0.08674912145801228
lfemur -9.654011465950617 -4.346120453267806 -23.670088580473863
ltibia 19.377706841911927
lfoot -5.69639465475677 -4.385363169126207
ltoes -6.656048250365959
rfemur -7.570116646259205 0.22313675757171092 22.108654455112408
rtibia 49.96505410668384
rfoot -2.4544593604440275 -10.36407176458998
rtoes 9.144990709901418
lowerback -1.0 -0.1434366609685226 0.5452232342607521
upperback -0.030860828222173398 0.2735422691848787 0.8323166909832962
thorax -5.0053865533170585 0.2175137106068854 0.007777458621304967
lowerneck -16.164310684165752 -3.3681982834301816 -1.612809621551415
upperneck 21.31179360351676 -4.468441605383861 1.310407357550611
head 9.533268780412296 -2.099592393406556 0.10343336962796473
lclavicle 3.476274435695e-16 -8.527596524252247e-16
lhumerus -33.15298766623074 5.366749649382373 80.9496672133913
lradius 24.13095515911038
lwrist 9.443133686862275
lhand -28.60575198174962 19.50420959335749
lfingers nan
lthumb -2.127219156818343 49.27381904080714
rclavicle 4.475259042115682e-16 -7.873483602419159e-16
rhumerus -25.139858201352514 -14.466814040976246 -76.59613685180668
rradius 33.74543672302731
rwrist 1.9687271957632675
rhand -17.5037395630107 -1.0
rfingers nan
rthumb 8.835433657508169 -7.3007959454202975
106
root 1.2226115754740923 17.92191279789234 52.40927978190347 -3.5062801682631033 2.154034650419752 0.6853981232566555
lfemur -6.249378884209007 -4.6392461490360235 -24.806947232888568
ltibia 18.129884016232367
lfoot -6.178007219513402 -5.1199041943089
ltoes -5.61402529495507
rfemur -11.216318021385048 -0.25972103220934617 20.86557535400304
rtibia 54.43174225360575
rfoot -3.7825037573409546 -9.802944426707366
rtoes 9.0993220828555
lowerback -1.0 -0.3673783939267527 -0.30955327805926247
upperback 0.012006837404416992 -0.14007035768253495 0.7551956187680426
thorax -5.060147394201353 0.011976346658516768 0.4501708986302932
lowerneck -16.230495387996953 -3.34835610875082 -1.5809225864297738
upperneck 21.191373751624518 -4.438977334691264 1.4107506034869708
head 9.514822681082867 -2.080324831168542 0.1534571395463416
lclavicle 3.4035589088475747e-16 -8.559701153185054e-16
lhumerus -32.975356289217025 5.234470756274441 80.81638305475404
lradius 24.55381787653678
lwrist 9.315867130161848
lhand -28.478012156122784 19.680760669113425
lfingers nan
lthumb -2.038140809108289 49.41188987096139
rclavicle 4.380589867657193e-16 -7.893623325737998e-16
rhumerus -25.319754315023754 -14.323880996136936 -77.09132827698927
rradius 33.590563171311516
rwrist 2.1941785781230543
rhand -17.492594784246275 -1.0
rfingers nan
rthumb 8.833551725654521 -7.311286255401584
107
root 1.213327185414471 17.914443252247043 52.542103042498695 -3.5459596623610157 1.939971427727011 1.3527212260659793
lfemur -3.15269750239288 -4.918694651033991 -25.815403725479065
ltibia 17.89878129805623
lfoot -6.260776120287034 -4.9300196344141956
ltoes -5.065154550965564
rfemur -14.663917204950241 -0.5744106335677546 19.971108782480265
rtibia 57.844802658966024
rfoot -5.36827939456251 -8.56277390035061
rtoes 8.743838141397582
lowerback -1.0 -0.6172797162519148 -1.0948358335428994
upperback 0.04963958478556013 -0.5752910046065632 0.7075568632101632
thorax -5.1081952239796555 -0.2074186028972526 0.9014312688590825
lowerneck -16.307836235670333 -3.3162845911455916 -1.5469896151020652
upperneck 21.097855819973695 -4.386158917814763 1.4646204601767336
head 9.507383754120378 -2.0545032128713516 0.18758418575650565
lclavicle 3.323229669017838e-16 -8.596764573511716e-16
lhumerus -32.61688917659267 4.931117692714817 80.71188169726324
lradius 24.948105912763452
lwrist 9.132631395115526
lhand -28.512080166784653 19.503536862795436
lfingers nan
lthumb -2.0456887529871457 49.32898901568538
rclavicle 4.2820828536162195e-16 -7.914928254616398e-16
rhumerus -25.673522156494755 -14.369446775995568 -77.6315392018514
rradius 33.38368710342437
rwrist 2.2239160672569263
rhand -17.495069467974382 -1.0
rfingers nan
rthumb 8.866885152171557 -7.271440934570464
108
root 1.2079586199468264 17.904072912479766 52.742498872090984 -3.6019020407099562 1.6200228270998127 2.0358541523272047
lfemur -0.36411513123688444 -5.1749282326437624 -26.77060651364925
ltibia 18.39750968160186
lfoot -6.537601677292117 -4.927108779036079
ltoes -4.6117468393345415
rfemur -17.215636978406973 -0.6758757190809166 19.31008970730137
rtibia 59.49259563161307
rfoot -6.896736141411558 -6.912523131021743
rtoes 8.06604094917193
lowerback -1.0 -0.8732713808019292 -1.8750917853860085
upperback 0.07644818784602515 -1.0167399894847287 0.6756890874650499
thorax -5.143458474922932 -0.43764299678147184 1.345248307705916
lowerneck -16.385372308836498 -3.264933693188758 -1.514578536186628
upperneck 21.04700417178931 -4.300682339766361 1.461592009813189
head 9.510769873514588 -2.0194229989685013 0.2066516919703026
lclavicle 3.2351704788097383e-16 -8.639062217850548e-16
lhumerus -32.08402464477619 4.509427004691105 80.648145423822
lradius 25.308889330306588
lwrist 8.889026021769936
lhand -28.36035405523364 19.722561518881612
lfingers nan
lthumb -1.9204765709359377 49.51804579179212
rclavicle 4.1827276366046062e-16 -7.93559055479173e-16
rhumerus -26.200390766349 -14.572987318187378 -78.20513117708929
rradius 33.14000742921532
rwrist 1.9930187288221808
rhand -17.48569201908897 -1.0
rfingers nan
rthumb 8.884747825531464 -7.270019771387482
109
root 1.199997888661794 17.88835495684141 52.152925862151534 -3.689760519853778 1.04026395363995 2.511179940882916
lfemur 2.2125786060696218 -5.30939978788926 -27.424610839431693
ltibia 19.295547100901683
lfoot -6.1233440837803625 -4.944992633360512
ltoes -4.361911226144191
rfemur -18.947549552062906 -0.54937116389481 19.029083170850214
rtibia 59.40755321888439
rfoot -8.18069242653856 -5.39206149041244
rtoes 7.081914669079674
lowerback -1.0 -1.081908481157692 -2.467717031158179
upperback 0.09185261888648188 -1.3769479078232885 0.6894085546455959
thorax -5.147502318927583 -0.6296991523380262 1.7473541631109355
lowerneck -16.464708816398065 -3.201403544111542 -1.5071941666789688
upperneck 21.053280490150364 -4.193048352040614 1.4104771393036726
head 9.525495848651877 -1.977956858208812 0.2145737509480915
lclavicle 3.1433226747216086e-16 -8.684662188280696e-16
lhumerus -31.454101049022587 3.969181107295796 80.60244451601174
lradius 25.639863608979525
lwrist 8.568881017287875
lhand -28.392910894970562 19.547030471466922
lfingers nan
lthumb -1.9073940839492431 49.45867972462603
rclavicle 4.08835415549359e-16 -7.953872221129336e-16
rhumerus -26.830795253792097 -14.920366607918321 -78.77108040979037
rradius 32.89261257973061
rwrist 1.6009818294895473
rhand -17.48082996409055 -1.0
rfingers nan
rthumb 8.9115832443128 -7.258526371199937
